<svg width="50" height="50" viewBox="0 0 50 50" fill="none" xmlns="http://www.w3.org/2000/svg">
<rect width="50" height="50" rx="25" fill="#EB6868"/>
<path d="M33.3333 15H41.6666V18.3334H38.3333V40C38.3333 40.4421 38.1577 40.866 37.8452 41.1786C37.5326 41.4911 37.1087 41.6667 36.6666 41.6667H13.3333C12.8913 41.6667 12.4674 41.4911 12.1548 41.1786C11.8422 40.866 11.6666 40.4421 11.6666 40V18.3334H8.33331V15H16.6666V10C16.6666 9.55801 16.8422 9.13409 17.1548 8.82153C17.4674 8.50897 17.8913 8.33337 18.3333 8.33337H31.6666C32.1087 8.33337 32.5326 8.50897 32.8452 8.82153C33.1577 9.13409 33.3333 9.55801 33.3333 10V15ZM35 18.3334H15V38.3334H35V18.3334ZM20 23.3334H23.3333V33.3334H20V23.3334ZM26.6666 23.3334H30V33.3334H26.6666V23.3334ZM20 11.6667V15H30V11.6667H20Z" fill="white"/>
</svg>
